<svg width="341" height="82" viewBox="0 0 341 82" fill="none" xmlns="http://www.w3.org/2000/svg">
<path d="M253.264 23.527C253.137 23.4678 253.019 23.3905 252.909 23.2951C252.79 23.2178 252.672 23.1405 252.553 23.0632C252.269 22.8204 252.131 22.5245 252.14 22.1753C252.146 21.7367 252.349 21.3017 252.748 20.8702C253.175 20.4291 253.777 19.8936 254.557 19.2639C254.697 19.1527 254.845 19.0234 255.002 18.8759C255.178 18.7369 255.339 18.6028 255.488 18.4734C255.21 18.4542 254.884 18.4899 254.511 18.5807C254.164 18.6617 253.804 18.7476 253.431 18.8383C253.191 18.8807 252.966 18.8421 252.757 18.7225C252.538 18.5764 252.394 18.388 252.325 18.1572C252.283 17.9168 252.331 17.6963 252.468 17.4956C252.588 17.2866 252.767 17.1385 253.006 17.0515C253.345 16.9885 253.7 16.9117 254.074 16.821C254.465 16.7387 254.84 16.6927 255.197 16.6829C256.118 16.6488 256.844 16.8661 257.376 17.3347C257.641 17.5243 257.774 17.807 257.775 18.1828C257.785 18.5404 257.607 18.8987 257.241 19.2577C256.893 19.6251 256.364 20.0958 255.655 20.67C255.463 20.8452 255.262 21.0163 255.052 21.1831C254.86 21.3583 254.672 21.5245 254.488 21.6816C254.437 21.7457 254.38 21.7964 254.318 21.8339C254.275 21.8798 254.231 21.9258 254.188 21.9717C254.594 22.0948 255.235 22.1623 256.112 22.1741C257.016 22.1763 258.326 21.9705 260.042 21.5567C260.957 21.3438 261.801 21.1194 262.573 20.8836C263.354 20.6296 263.983 20.4156 264.461 20.2415C264.94 20.0673 265.179 19.9803 265.179 19.9803C265.515 19.8279 265.816 19.8689 266.082 20.1033C266.218 20.189 266.307 20.3074 266.346 20.4584C266.395 20.5913 266.425 20.7157 266.437 20.8317C266.446 21.1447 266.315 21.448 266.046 21.7416C265.803 22.0257 265.354 22.4674 264.7 23.0669C264.481 23.2518 264.262 23.4367 264.044 23.6217C263.843 23.815 263.651 23.9903 263.468 24.1474C263.416 24.2115 263.368 24.2665 263.325 24.3124C263.308 24.3486 263.282 24.3807 263.247 24.4085C263.616 24.5147 264.047 24.5387 264.537 24.4806C265.054 24.4128 265.566 24.3093 266.072 24.1702C266.596 24.0396 267.036 23.9246 267.391 23.8255C267.649 23.7469 267.882 23.7673 268.091 23.8869C268.3 24.0064 268.448 24.1858 268.535 24.425C268.596 24.6739 268.566 24.9029 268.447 25.1119C268.345 25.3295 268.166 25.4775 267.908 25.5561C267.118 25.7835 266.323 25.9753 265.522 26.1313C264.739 26.2959 263.998 26.3475 263.298 26.2861C262.625 26.215 262.023 25.9675 261.493 25.5435C261.262 25.2814 261.138 25.0029 261.121 24.7081C261.13 24.4036 261.225 24.1058 261.405 23.8145C261.603 23.5318 261.889 23.2018 262.264 22.8247C261.98 22.913 261.691 22.988 261.398 23.0497C261.122 23.1199 260.82 23.1997 260.491 23.2892C257.069 24.0986 254.66 24.1778 253.264 23.527ZM269.094 30.9088C268.967 30.8496 268.849 30.7723 268.739 30.6769C268.62 30.5996 268.502 30.5223 268.384 30.445C268.1 30.2022 267.962 29.9062 267.97 29.5571C267.976 29.1185 268.179 28.6834 268.579 28.252C269.005 27.8108 269.608 27.2754 270.387 26.6457C270.527 26.5345 270.676 26.4052 270.833 26.2577C271.008 26.1187 271.17 25.9845 271.318 25.8552C271.04 25.836 270.715 25.8717 270.341 25.9624C269.995 26.0435 269.635 26.1294 269.261 26.2201C269.021 26.2625 268.796 26.2239 268.587 26.1043C268.368 25.9582 268.225 25.7697 268.156 25.539C268.113 25.2986 268.161 25.078 268.299 24.8774C268.418 24.6684 268.597 24.5203 268.837 24.4332C269.175 24.3703 269.531 24.2935 269.904 24.2028C270.296 24.1205 270.67 24.0745 271.028 24.0647C271.948 24.0306 272.675 24.2479 273.206 24.7165C273.471 24.9061 273.604 25.1888 273.605 25.5646C273.615 25.9222 273.437 26.2805 273.071 26.6395C272.723 27.0069 272.195 27.4776 271.486 28.0518C271.294 28.227 271.092 28.398 270.882 28.5648C270.69 28.7401 270.502 28.9063 270.319 29.0634C270.267 29.1275 270.21 29.1782 270.148 29.2157C270.105 29.2616 270.061 29.3075 270.018 29.3535C270.424 29.4766 271.066 29.5441 271.943 29.5559C272.847 29.558 274.156 29.3523 275.872 28.9385C276.788 28.7256 277.631 28.5012 278.403 28.2654C279.184 28.0114 279.813 27.7974 280.292 27.6233C280.77 27.4491 281.009 27.3621 281.009 27.3621C281.345 27.2097 281.646 27.2507 281.912 27.485C282.049 27.5708 282.137 27.6892 282.177 27.8402C282.225 27.9731 282.255 28.0975 282.267 28.2135C282.276 28.5264 282.146 28.8297 281.876 29.1234C281.633 29.4074 281.185 29.8492 280.53 30.4487C280.311 30.6336 280.093 30.8185 279.874 31.0034C279.674 31.1968 279.482 31.3721 279.298 31.5292C279.246 31.5933 279.198 31.6482 279.155 31.6942C279.138 31.7304 279.112 31.7624 279.077 31.7902C279.447 31.8965 279.877 31.9205 280.367 31.8624C280.884 31.7945 281.396 31.6911 281.902 31.552C282.427 31.4213 282.866 31.3064 283.222 31.2073C283.479 31.1286 283.712 31.1491 283.921 31.2687C284.13 31.3882 284.278 31.5676 284.365 31.8068C284.426 32.0557 284.396 32.2847 284.277 32.4937C284.175 32.7112 283.996 32.8593 283.739 32.9379C282.949 33.1653 282.153 33.357 281.352 33.5131C280.569 33.6777 279.828 33.7293 279.128 33.6678C278.455 33.5968 277.853 33.3492 277.323 32.9253C277.092 32.6632 276.968 32.3847 276.951 32.0899C276.961 31.7854 277.055 31.4876 277.235 31.1963C277.433 30.9135 277.72 30.5836 278.094 30.2065C277.81 30.2948 277.521 30.3698 277.228 30.4315C276.952 30.5017 276.65 30.5815 276.322 30.671C272.899 31.4803 270.49 31.5596 269.094 30.9088ZM286.15 38.9281C286.059 38.8859 285.973 38.8345 285.891 38.7742C285.8 38.7319 285.704 38.6763 285.604 38.6075C285.42 38.4336 285.311 38.195 285.276 37.8917C285.271 37.7129 285.328 37.4966 285.446 37.2428C285.564 36.9891 285.84 36.6102 286.274 36.1062C286.708 35.6023 287.372 34.8638 288.267 33.8909C287.801 33.85 287.258 33.8067 286.639 33.7609C286.039 33.7237 285.42 33.6779 284.784 33.6237C284.55 33.6033 284.355 33.5012 284.198 33.3176C284.031 33.1074 283.953 32.8725 283.964 32.6127C283.984 32.3795 284.096 32.1886 284.297 32.0399C284.489 31.8646 284.715 31.7824 284.975 31.7932C285.89 31.8666 286.742 31.9328 287.531 31.9918C288.338 32.0592 288.997 32.1128 289.508 32.1525C290.019 32.1922 290.275 32.2121 290.275 32.2121C290.49 32.2241 290.666 32.2954 290.804 32.4258C291.014 32.5901 291.123 32.8063 291.13 33.0745C291.145 33.2799 291.104 33.4376 291.009 33.5476C290.932 33.666 290.841 33.7893 290.737 33.9174C290.667 33.973 290.602 34.0419 290.542 34.1241C290.49 34.1881 290.42 34.2661 290.333 34.3579C290.063 34.6069 289.749 34.9242 289.393 35.3097C289.063 35.6856 288.72 36.0663 288.364 36.4518C288.155 36.6633 287.981 36.847 287.842 37.0029C287.703 37.1588 287.582 37.3008 287.478 37.4289C287.856 37.517 288.452 37.541 289.265 37.5009C289.97 37.4548 290.733 37.3802 291.554 37.2773C292.401 37.1647 293.265 37.0382 294.147 36.8977C294.334 36.8747 294.522 36.8517 294.709 36.8287C294.914 36.8141 295.106 36.7821 295.283 36.7325C295.542 36.6986 295.767 36.7595 295.96 36.9153C296.178 37.0615 296.305 37.2638 296.338 37.5224C296.381 37.7628 296.324 37.9791 296.168 38.1712C296.031 38.3718 295.833 38.4891 295.574 38.523C295.378 38.5641 295.173 38.6011 294.96 38.6337C294.772 38.6568 294.572 38.6846 294.358 38.7173C293.458 38.8493 292.584 38.9715 291.737 39.0842C290.89 39.1968 290.105 39.2719 289.381 39.3096C287.916 39.3765 286.839 39.2493 286.15 38.9281Z" fill="#FF5D29"/>
<path d="M4.23 58V27.4H9.18C11.55 30.49 13.8 33.76 15.93 37.21C18.06 40.63 19.995 44.155 21.735 47.785L21.33 38.65V27.4H26.505V58H21.555C19.635 54.22 17.64 50.425 15.57 46.615C13.53 42.775 11.355 39.16 9.045 35.77L9.405 46.3V58H4.23ZM47.7278 27.4H53.2628V47.02C53.2628 49 53.6978 50.56 54.5678 51.7C55.4378 52.81 56.8328 53.365 58.7528 53.365C60.6728 53.365 62.0678 52.81 62.9378 51.7C63.8078 50.56 64.2428 49 64.2428 47.02V27.4H69.7778V47.02C69.7778 50.47 68.8628 53.245 67.0328 55.345C65.2028 57.415 62.4428 58.45 58.7528 58.45C55.0328 58.45 52.2578 57.415 50.4278 55.345C48.6278 53.245 47.7278 50.47 47.7278 47.02V27.4ZM87.3946 32.575V27.4H109.895V32.575H101.345V58H95.9446V32.575H87.3946ZM124.581 32.575V27.4H147.081V32.575H138.531V58H133.131V32.575H124.581ZM178.758 58L176.868 52.015H166.383L164.493 58H159.138L169.353 27.4H174.123L184.383 58H178.758ZM169.308 42.655L167.913 47.065H175.293L173.898 42.655L171.648 34.915L169.308 42.655ZM206.762 39.505L208.472 50.845L214.592 27.4H219.452L225.527 50.665L227.417 39.505L229.757 27.4H235.247L228.362 58H222.827L216.932 35.23L210.992 58H205.457L198.572 27.4H204.422L206.762 39.505ZM269.083 58L267.193 52.015H256.708L254.818 58H249.463L259.678 27.4H264.448L274.708 58H269.083ZM259.633 42.655L258.238 47.065H265.618L264.223 42.655L261.973 34.915L259.633 42.655ZM286.731 32.575V27.4H309.231V32.575H300.681V58H295.281V32.575H286.731ZM326.759 58H321.314V52.645H326.759V58Z" fill="#221D1E"/>
</svg>
